<?xml version="1.0" encoding="utf-8"?>
<svg version="1.1" baseProfile="tiny" id="giga_infosystems_logo" xmlns="http://www.w3.org/2000/svg" xmlns:xlink="http://www.w3.org/1999/xlink"
	 x="0px" y="0px" width="718px" height="405.334px" viewBox="0 0 718 405.334" xml:space="preserve">
<polygon fill="#00988A" points="102.953,97.751 95.822,27.061 146.833,19.126 "/>
<polygon fill="#00ABA1" points="95.822,27.061 63.714,58.438 102.953,97.751 "/>
<polygon fill="#7AC6BF" points="40.918,35.6 95.822,27.061 63.714,58.438 "/>
<polygon fill="#00ABA1" points="100.033,100.487 27.649,95.588 67.362,67.755 "/>
<polygon fill="#00998B" points="27.649,95.588 38.01,38.349 67.362,67.755 "/>
<polygon fill="#7AC6BF" points="27.649,95.588 49.791,125.557 100.033,100.487 "/>
<polygon fill="#00ABA1" points="27.649,95.588 49.791,125.557 19.488,140.677 "/>
<polygon fill="#00ABA1" points="101.857,104.046 58.051,125.905 116.422,196.54 "/>
<polygon fill="#7AC6BF" points="116.422,196.54 58.365,126.274 58.051,125.905 56.081,163.483 "/>
<polygon fill="#00998B" points="21.123,144.331 58.051,125.905 56.081,163.483 "/>
<polygon fill="#7AC6BF" points="111.949,142.419 139.218,110.913 105.84,103.616 "/>
<polygon fill="#00ABA1" points="111.949,142.419 147.131,170.935 139.218,110.913 "/>
<polygon fill="#00998B" points="111.949,142.419 147.131,170.935 120.416,196.188 "/>
<polygon fill="#7AC6BF" points="139.218,110.913 197.215,123.591 147.131,170.935 "/>
<polygon fill="#7AC6BF" points="123.445,69.241 139.218,106.819 106.469,99.659 "/>
<polygon fill="#00ABA1" points="123.445,69.241 139.218,106.819 186.25,95.588 "/>
<polygon fill="#00998B" points="139.218,106.819 197.765,119.618 186.25,95.588 "/>
<polygon fill="#7AC6BF" points="123.445,69.241 186.25,95.588 150.443,20.866 "/>
<g>
	<g>
		<path fill="#1D1D1B" d="M336.57,123.473v31.762h-68.658c-8.027,1.533-8.418,8.193-8.418,8.193v76.164c0,0-0.76,8.969,8.26,10.217
			h40.365v-29.262h-23.648v-31.068h54.748v90.734h-71.087c-28.257,0-39.515-13.684-39.515-42.605v-73.294
			c0-27.375,15.011-40.84,44.371-40.84H336.57z"/>
	</g>
	<g>
		<path fill="#1D1D1B" d="M536.871,123.473v31.762h-68.66c-8.025,1.533-8.42,8.193-8.42,8.193v76.164c0,0-0.758,8.969,8.262,10.217
			h40.369v-29.262h-23.656v-31.068h54.752v90.734h-71.086c-28.258,0-39.514-13.684-39.514-42.605v-73.294
			c0-27.375,15.01-40.84,44.369-40.84H536.871z"/>
	</g>
	<path fill="#1D1D1B" d="M637.525,123.397c36.908,0,51.121,21.174,51.121,56.867v100.128h-79.853
		c-28.436,0-46.588-16.639-46.588-48.701c0-26.02,17.848-40.841,48.4-45.98l47.787-7.865c0-13.918-6.045-22.986-19.959-22.986
		h-55.053v-31.463H637.525z M658.098,249.842V206.58l-44.772,6.047c-10.891,1.518-19.965,6.055-19.965,19.357
		c0,11.803,6.656,17.857,15.127,17.857H658.098z"/>
	<rect x="368.414" y="123.397" fill="#1D1D1B" width="30.854" height="31.416"/>
	<rect x="368.414" y="167.874" fill="#1D1D1B" width="30.854" height="112.519"/>
</g>
<polygon fill="#00998B" points="161.581,20.126 159.363,20.126 209.466,124.675 128.548,201.163 128.548,203.795 128.557,203.907 
	211.899,125.127 "/>
<g>
	<path fill="#1D1D1B" d="M231.403,306.238c0,0.572-0.287,0.859-0.86,0.859h-1.529c-0.573,0-0.765-0.287-0.765-0.859v-9.27
		c0-0.572,0.191-0.859,0.765-0.859h1.529c0.573,0,0.86,0.287,0.86,0.859V306.238z M231.403,362.042c0,0.572-0.287,0.858-0.86,0.858
		h-1.529c-0.573,0-0.765-0.286-0.765-0.858v-45.198c0-0.574,0.191-0.859,0.765-0.859h1.529c0.573,0,0.86,0.285,0.86,0.859V362.042z"
		/>
	<path fill="#1D1D1B" d="M250.8,315.984c0.574,0,0.765,0.285,0.765,0.859l0.191,4.396c2.771-2.292,8.6-6.02,16.913-6.02
		c8.982,0,12.996,4.586,12.996,10.989v35.833c0,0.572-0.287,0.858-0.86,0.858h-1.529c-0.573,0-0.764-0.286-0.764-0.858v-35.357
		c0-4.967-3.153-8.6-10.415-8.6c-8.409,0-14.046,4.206-16.244,6.021v37.936c0,0.572-0.287,0.858-0.86,0.858h-1.529
		c-0.573,0-0.765-0.286-0.765-0.858v-45.198c0-0.574,0.191-0.859,0.765-0.859H250.8z"/>
	<path fill="#1D1D1B" d="M300.107,316.08v-9.27c0-6.496,3.727-11.18,16.34-11.18h0.382c0.573,0,0.764,0.288,0.764,0.859v1.053
		c0,0.572-0.191,0.859-0.764,0.859h-0.382c-10.32,0-13.187,3.631-13.187,8.695v8.982h11.849c0.573,0,0.86,0.287,0.86,0.859v1.051
		c0,0.574-0.287,0.861-0.86,0.861h-11.849v43.19c0,0.572-0.191,0.858-0.86,0.858h-1.434c-0.573,0-0.86-0.286-0.86-0.858v-43.19
		h-6.498c-0.573,0-0.764-0.287-0.764-0.861v-0.859c0-0.572,0.191-0.861,0.764-0.861l5.351-0.189H300.107z"/>
	<path fill="#1D1D1B" d="M325.623,326.398c0-6.593,3.917-11.179,16.435-11.179c12.612,0,16.532,4.586,16.532,11.179v26.087
		c0,6.499-3.92,11.181-16.532,11.181c-12.518,0-16.435-4.682-16.435-11.181V326.398z M355.435,326.592
		c0-4.971-3.058-8.697-13.378-8.697c-10.225,0-13.282,3.727-13.282,8.697v25.703c0,4.969,3.057,8.6,13.282,8.6
		c10.319,0,13.378-3.631,13.378-8.6V326.592z"/>
	<path fill="#1D1D1B" d="M401.206,324.967c0-4.205-3.82-7.262-12.707-7.262c-8.887,0-12.518,3.057-12.518,7.262v3.535
		c0,3.631,3.439,5.828,5.924,6.593l15.193,4.587c4.107,1.242,7.835,4.013,7.835,8.408v5.733c0,5.542-4.969,9.843-16.34,9.843
		c-11.371,0-16.243-4.301-16.243-9.843v-2.771c0-0.479,0.286-0.766,0.859-0.766h1.434c0.478,0,0.765,0.287,0.765,0.766v2.675
		c0,4.3,4.013,7.357,13.186,7.357c9.078,0,13.282-3.058,13.282-7.357v-4.968c0-3.536-3.058-5.447-6.307-6.403l-15.194-4.587
		c-3.152-0.955-7.451-4.013-7.451-8.789v-4.014c0-5.447,4.394-9.747,15.575-9.747c11.179,0,15.67,4.3,15.67,9.747v3.344
		c0,0.479-0.191,0.67-0.859,0.67h-1.434c-0.479,0-0.67-0.191-0.67-0.67V324.967z"/>
	<path fill="#1D1D1B" d="M428.633,354.301c0.381,1.146,1.241,4.205,1.241,4.205s0.573-2.676,1.147-4.205l12.901-37.457
		c0.189-0.574,0.476-0.859,0.954-0.859h1.625c0.573,0,0.765,0.383,0.573,0.859l-22.359,65.264c-0.191,0.478-0.479,0.859-0.956,0.859
		h-1.339c-0.572,0-0.763-0.382-0.572-0.859l6.401-19.303l-15.765-45.961c-0.191-0.477,0-0.859,0.573-0.859h1.624
		c0.574,0,0.86,0.285,1.05,0.859L428.633,354.301z"/>
	<path fill="#1D1D1B" d="M484.148,324.967c0-4.205-3.821-7.262-12.707-7.262c-8.887,0-12.518,3.057-12.518,7.262v3.535
		c0,3.631,3.439,5.828,5.923,6.593l15.194,4.587c4.107,1.242,7.835,4.013,7.835,8.408v5.733c0,5.542-4.969,9.843-16.34,9.843
		s-16.243-4.301-16.243-9.843v-2.771c0-0.479,0.286-0.766,0.859-0.766h1.433c0.479,0,0.765,0.287,0.765,0.766v2.675
		c0,4.3,4.013,7.357,13.186,7.357c9.078,0,13.282-3.058,13.282-7.357v-4.968c0-3.536-3.058-5.447-6.308-6.403l-15.193-4.587
		c-3.152-0.955-7.452-4.013-7.452-8.789v-4.014c0-5.447,4.395-9.747,15.576-9.747c11.179,0,15.67,4.3,15.67,9.747v3.344
		c0,0.479-0.192,0.67-0.86,0.67h-1.433c-0.479,0-0.67-0.191-0.67-0.67V324.967z"/>
	<path fill="#1D1D1B" d="M518.644,316.08c0.573,0,0.86,0.287,0.86,0.859v1.051c0,0.574-0.287,0.861-0.86,0.861H506.7v32.584
		c0,5.065,2.772,8.695,13.091,8.695h1.338c0.574,0,0.86,0.189,0.86,0.858v1.053c0,0.572-0.286,0.858-0.86,0.858h-1.624
		c-12.612,0-15.957-4.49-15.957-11.178v-32.871h-6.402c-0.573,0-0.859-0.287-0.859-0.861v-0.859c0-0.572,0.286-0.861,0.859-0.861
		l5.256-0.189h1.147v-10.607c0-0.572,0.191-0.859,0.765-0.859h1.528c0.573,0,0.859,0.287,0.859,0.859v10.607H518.644z"/>
	<path fill="#1D1D1B" d="M564.799,338.344c0,0.572-0.286,0.861-0.765,0.861h-28.666v13.09c0,4.969,2.771,8.694,13.188,8.694
		c10.415,0,13.185-3.726,13.185-8.694v-2.389c0-0.574,0.287-0.861,0.86-0.861h1.338c0.573,0,0.859,0.287,0.859,0.861v2.579
		c0,6.499-3.726,11.181-16.34,11.181c-12.518,0-16.243-4.682-16.243-11.181v-26.087c0-6.593,3.726-11.179,16.34-11.179
		c12.517,0,16.243,4.586,16.243,11.179V338.344z M535.368,336.623h26.373v-10.129c0-4.873-2.865-8.6-13.185-8.6
		c-10.319,0-13.188,3.727-13.188,8.6V336.623z"/>
	<path fill="#1D1D1B" d="M582.096,315.984c0.573,0,0.766,0.285,0.766,0.859l0.095,4.301c2.676-2.197,8.121-5.925,16.435-5.925
		c6.689,0,10.606,2.581,12.231,6.499c2.295-2.009,7.932-6.499,17.01-6.499c8.982,0,12.994,4.586,12.994,10.989v35.833
		c0,0.572-0.287,0.858-0.86,0.858h-1.433c-0.668,0-0.859-0.286-0.859-0.858v-35.357c0-4.967-3.153-8.6-10.417-8.6
		c-8.789,0-14.045,4.491-15.957,6.211c0.192,0.765,0.287,1.625,0.287,2.389v35.357c0,0.572-0.287,0.858-0.859,0.858h-1.53
		c-0.573,0-0.763-0.286-0.763-0.858v-35.357c0-4.967-3.154-8.6-10.417-8.6c-8.313,0-13.663,4.206-15.67,6.021v37.936
		c0,0.572-0.286,0.858-0.859,0.858h-1.53c-0.573,0-0.763-0.286-0.763-0.858v-45.198c0-0.574,0.189-0.859,0.763-0.859H582.096z"/>
	<path fill="#1D1D1B" d="M684.819,324.967c0-4.205-3.82-7.262-12.707-7.262s-12.518,3.057-12.518,7.262v3.535
		c0,3.631,3.439,5.828,5.924,6.593l15.193,4.587c4.107,1.242,7.835,4.013,7.835,8.408v5.733c0,5.542-4.969,9.843-16.34,9.843
		c-11.371,0-16.243-4.301-16.243-9.843v-2.771c0-0.479,0.286-0.766,0.859-0.766h1.434c0.478,0,0.765,0.287,0.765,0.766v2.675
		c0,4.3,4.013,7.357,13.185,7.357c9.078,0,13.282-3.058,13.282-7.357v-4.968c0-3.536-3.058-5.447-6.307-6.403l-15.194-4.587
		c-3.152-0.955-7.451-4.013-7.451-8.789v-4.014c0-5.447,4.394-9.747,15.575-9.747c11.179,0,15.67,4.3,15.67,9.747v3.344
		c0,0.479-0.191,0.67-0.859,0.67h-1.434c-0.479,0-0.67-0.191-0.67-0.67V324.967z"/>
</g>
</svg>
