<?xml version="1.0" encoding="UTF-8" standalone="no"?>
<svg width="217px" height="144px" viewBox="0 0 217 144" version="1.1" xmlns="http://www.w3.org/2000/svg" xmlns:xlink="http://www.w3.org/1999/xlink" xmlns:sketch="http://www.bohemiancoding.com/sketch/ns">
    <!-- Generator: Sketch 3.0.4 (8053) - http://www.bohemiancoding.com/sketch -->
    <title>Untitled 2</title>
    <desc>Created with Sketch.</desc>
    <defs></defs>
    <g id="Page-1" stroke="none" stroke-width="1" fill="none" fill-rule="evenodd" sketch:type="MSPage">
        <g id="Brand" sketch:type="MSLayerGroup">
            <g id="Group">
                <g transform="translate(1.000000, 43.000000)" id="Shape" fill="#336E87" sketch:type="MSShapeGroup">
                    <path d="M0,37 L0,1 L25.221764,1 L25.221764,8.04566182 L7.26532221,8.04566182 L7.26532221,14.2684445 L17.696705,14.2684445 L17.696705,21.2624349 L7.26532221,21.2624349 L7.26532221,29.9538551 L26,29.9538551 L26,36.9999999 L0,36.9999999 L0,37 Z"></path>
                    <path d="M56.9553763,37 L54.0823664,28.9769276 L40.7091603,28.9769276 L37.8356599,37 L30,37 L44.0000982,1 L51.1043839,1 L65,37 L56.9553763,37 L56.9553763,37 Z M48.7497652,15.5423547 C48.0497652,13.4572873 47.3497652,11.3216091 47,10 C46.6502347,11.321609 45.9502347,13.4572872 45.2502347,15.5423547 L43,22 L51,22 L48.7497652,15.5423547 L48.7497652,15.5423547 Z"></path>
                    <path d="M90.7653312,37 L84.3720086,24.0396523 L77.16031,24.0396523 L77.16031,37 L70,37 L70,1 L86.6734511,1 C93.4250534,1 99,4.75414495 99,12.4169662 C99,17.8168696 96.6985575,21.2112464 92.1461008,23.0110533 L99,37 L90.7653312,37 L90.7653312,37 Z M86.6998806,8 L77,8 L77,17 L86.6998806,17 C90.1450329,17 92,15.5003913 92,12.4499974 C92,9.30006783 89.9862632,8 86.6998806,8 L86.6998806,8 Z"></path>
                    <path d="M117.923334,38 C111.934287,38 106.712856,35.4211991 104,31.3157758 L109.17,26.5792431 C111.678094,29.579113 114.902855,30.7894395 118.332858,30.7894395 C122.581429,30.7894395 124.577618,29.579113 124.577618,26.7897776 C124.577618,24.4210171 123.349046,23.3688386 116.592382,21.7898296 C109.989048,20.2108206 105.381903,18.0525946 105.381903,10.7896475 C105.381903,4.10542329 111.115239,0 118.179047,0 C123.75857,0 127.85381,2.15822602 131.232383,5.78969953 L126.062383,10.9473013 C123.75857,8.52664835 121.199046,7.15817399 117.923334,7.15817399 C114.083807,7.15817399 112.804285,8.84245023 112.804285,10.4738457 C112.804285,12.7897255 114.34,13.5265964 120.021904,14.8950709 C125.703809,16.2635454 132,18.2631291 132,26.2634413 C132,33.2634673 127.699998,38 117.923334,38 L117.923334,38 Z"></path>
                    <path d="M159.351285,11.315984 C158.071873,8.78956956 156.025967,7.31582795 152.804385,7.31582795 C147.434122,7.31582795 144.365262,12.1581221 144.365262,19.0000001 C144.365262,25.6318378 147.485029,30.6846665 152.855293,30.6846665 C156.077835,30.6846665 157.970058,29.2633113 159.862281,26.0000261 L165.897224,29.6843803 C163.442137,34.895357 159.146695,38 152.650702,38 C143.291402,38 137,30.6317856 137,19 C137,7.78977762 143.5469,0 152.9062,0 C159.657691,0 163.749503,3.36855247 166,8.15796591 L159.351285,11.315984 L159.351285,11.315984 Z"></path>
                </g>
                <g transform="translate(122.000000, 0.000000)" id="Shape" sketch:type="MSShapeGroup">
                    <path d="M10.2046181,112.569238 L31.8989998,117.48091 L45.4329578,106 L45.3065904,120.514531 L67,125.422266 L45.2278538,129.487437 L45.0995421,144 L31.7736044,131.995441 L10,136.058644 L23.5324999,124.575765 L10.2046181,112.569238 Z" fill="#D3CDC6"></path>
                    <path d="M52.1535051,76.8398404 L68.517929,80.460776 L78.7313946,72 L78.6345984,82.6926145 L95,86.3101656 L78.5739785,89.303034 L78.4801155,100 L68.4240661,91.1538741 L52,94.1477095 L62.2095545,85.6845159 L52.1535051,76.8398404 Z" fill="#D9D4CD"></path>
                    <path d="M60.1183532,46.6310264 L72.2980658,49.3429341 L79.8940157,43 L79.8222277,51.0196851 L92,53.7306258 L79.7785728,55.9769306 L79.7067847,64 L72.2262778,57.3669705 L60,59.6079569 L67.6046807,53.2650228 L60.1183532,46.6310264 Z" fill="#DEDAD4"></path>
                    <path d="M45.0873221,20.7682579 L54.2221863,22.8365925 L59.9214101,18 L59.8661061,24.1121719 L69,26.1765771 L59.8331177,27.8888104 L59.7807244,34 L54.169793,28.9463085 L45,30.6570683 L50.6992238,25.8190023 L45.0873221,20.7682579 Z" fill="#E4E0DB"></path>
                    <path d="M25.0640396,10.0744015 L31.9153146,11.627256 L36.1885073,8 L36.1526063,12.5839165 L43,14.1328423 L36.1244677,15.4170656 L36.086626,20 L31.8755323,16.2096992 L25,17.4919582 L29.2731929,13.8656845 L25.0640396,10.0744015 Z" fill="#E4E0DB"></path>
                    <path d="M0.0472989587,1.55656817 L5.37749343,2.71969649 L8.7030155,0 L8.67232153,3.43682804 L14,4.59848274 L8.65169105,5.56169845 L8.62099707,9 L5.34679946,6.15652463 L0,7.11974023 L3.32149658,4.40004364 L0.0472989587,1.55656817 Z" fill="#E4E0DB"></path>
                </g>
                <text id="European-Association" sketch:type="MSTextLayer" font-family="Helvetica" font-size="12" font-weight="normal" fill="#000000">
                    <tspan x="0" y="106">European Association</tspan>
                    <tspan x="0" y="120">of Remote Sensing</tspan>
                    <tspan x="0" y="134">Companies</tspan>
                </text>
            </g>
        </g>
    </g>
</svg>